# xmcd
#
# Track frame offsets:
# 150
# 24115
# 50061
# 70629
# 108195
# 127931
# 144777
# 172006
# 187349
# 223602
# 246460
#
# Disc length: 3508 seconds
#
# Revision: 0
# Processed by: cddbd v1.5.1PL0 Copyright (c) Steve Scherf et al.
# Submitted via: Audion 3.0.2 (http://www.panic.com/audion/)
#
DISCID=9b0db20b
DTITLE=The Tennessee Mass Choir - We Behold His Glory
DYEAR=1900
DGENRE=
TTITLE0=Let's Praise the Lord
TTITLE1=O That Man Would
TTITLE2=He Cares For Me
TTITLE3=We Behold His Glory
TTITLE4=Faith
TTITLE5=Jesus is Real
TTITLE6=It's By Grace
TTITLE7=When The Praises Go Up
TTITLE8=Worship Jesus
TTITLE9=Praise Him
TTITLE10=Lord, I Want To Thank You
EXTD=
EXTT0=
EXTT1=
EXTT2=
EXTT3=
EXTT4=
EXTT5=
EXTT6=
EXTT7=
EXTT8=
EXTT9=
EXTT10=
PLAYORDER=
